# xmcd
#
# Track frame offsets:
#	150
#	11390
#	30769
#	37823
#	48352
#	68843
#	83289
#	100710
#	114080
#	133923
#	149776
#	168723
#	188076
#	200231
#	219756
#	235234
#	251464
#	272934
#	287458
#	294368
#	301788
#
# Disc length: 4243 seconds
#
# Revision: 1
# Processed by: cddbd v1.4PL0 Copyright (c) Steve Scherf et al.
# Submitted via: CDmax 1.9
#
DISCID=1a109115
DTITLE=The Flying Burrito Brothers - Avalon Ballroom San Francisco CA 4/6/1969
DYEAR=1900
DGENRE=Country
TTITLE0=Close Up The Honky Tonks
TTITLE1=Dark End Of The Street
TTITLE2=Undo The Right
TTITLE3=Somebody's Back In Town
TTITLE4=She Once Lived Here
TTITLE5=Sweet Mental Revenge
TTITLE6=Get Ourselves Together
TTITLE7=Lucille
TTITLE8=Sin City
TTITLE9=You Win Again
TTITLE10=Hot Burrito #1
TTITLE11=Hot Burrito #2
TTITLE12=You're Still On My Mind
TTITLE13=Train Song
TTITLE14=Long Black Limousine
TTITLE15=Dream Baby
TTITLE16=Do Right Woman
TTITLE17=Six Days On The Road
TTITLE18=If You Can't Undo The Wrong Undo The Right
TTITLE19=Somebody's Back In Town
TTITLE20=Hot Burrito #1
EXTD=
EXTT0=
EXTT1=
EXTT2=
EXTT3=
EXTT4=
EXTT5=
EXTT6=
EXTT7=
EXTT8=
EXTT9=
EXTT10=
EXTT11=
EXTT12=
EXTT13=
EXTT14=
EXTT15=
EXTT16=
EXTT17=
EXTT18=
EXTT19=
EXTT20=
PLAYORDER=
